<svg width="17" height="16" viewBox="0 0 17 16" fill="none" xmlns="http://www.w3.org/2000/svg">
<path d="M6.72366 14.5058L6.06454 14.079L4.53287 14.3719L0.464539 11.8586L2.2392 5.12118L1.47989 3.22099L1.63037 1.52502L2.89678 0.781067L4.54669 1.38798L6.00734 2.98375L8.42001 2.4755L10.8327 2.98375L12.2937 1.38798L13.9436 0.781067L15.21 1.52502L15.3601 3.22099L14.6012 5.12118L16.3759 11.8586L12.3075 14.3719L10.7759 14.079L10.1198 14.5039L9.98201 14.5408L9.98239 14.5411L8.41655 14.9653L6.72366 14.5058Z" fill="#808080"/>
<path d="M11.607 13.5884L11.3183 12.7861L9.5582 10.697L9.10254 12.5765L9.58622 13.1803L9.58661 13.1807L9.20503 14.2966L11.607 13.5884Z" fill="#D9D9D9"/>
<path d="M5.24457 13.5884L5.52211 12.7861L7.29332 10.697L7.74898 12.5765L7.2653 13.1803V13.1807H7.26491L7.64649 14.2966L5.24457 13.5884Z" fill="#D9D9D9"/>
<path d="M13.1639 9.15381L11.9232 10.8847L10.4561 11.2344L11.3182 12.7861L12.7812 13.6145L16.3758 11.8586L13.1639 9.15381Z" fill="black"/>
<path d="M3.67644 9.15381L4.91713 10.8847L6.38392 11.2344L5.52212 12.7861L4.05916 13.6145L0.464539 11.8586L3.67644 9.15381Z" fill="black"/>
<path d="M14.359 1.38605L12.3601 2.32463L12.5755 4.97799L14.521 3.56647L14.359 1.38605Z" fill="#1A1A1A"/>
<path d="M2.50249 1.38605L4.50173 2.32463L4.28637 4.97799L2.34088 3.56647L2.50249 1.38605Z" fill="#1A1A1A"/>
<path d="M6.01497 8.36649L7.14165 9.82176L5.5213 12.783L7.29328 10.6978L7.56007 9.74384L6.01497 8.36649Z" fill="#262626"/>
<path d="M10.8288 8.36649L9.70175 9.82176L11.3221 12.783L9.5505 10.6978L9.28333 9.74384L10.8288 8.36649Z" fill="#262626"/>
<path d="M14.3501 1.39758L14.9443 2.36495L14.5109 3.58568L14.3501 1.39758Z" fill="#404040"/>
<path d="M2.49099 1.39758L1.89636 2.36495L2.33014 3.58568L2.49099 1.39758Z" fill="#404040"/>
<path d="M10.8319 8.36647L13.1678 9.14497L12.9379 8.1062L10.8319 8.36647Z" fill="#A6A6A6"/>
<path d="M14.6783 9.80678L12.9378 8.1062L13.1677 9.14497L14.6783 9.80678Z" fill="#808080"/>
<path d="M13.1678 9.145L11.0542 10.4617L9.70483 9.82177L10.4879 8.81064L13.1678 9.145Z" fill="black"/>
<path d="M10.3517 8.79374L13.1678 9.14499L10.8319 8.36649L10.3517 8.79374Z" fill="#4D4D4D"/>
<path d="M12.0384 9.39221L13.1678 9.14499L11.0541 10.4617L12.0384 9.39221Z" fill="#262626"/>
<path d="M11.2054 8.90121L10.4023 9.18375L10.0676 9.99219L10.3067 9.04248L11.2054 8.90121Z" fill="#808080"/>
<path d="M10.0649 9.99219L11.2238 10.2091L11.0541 10.4617L10.0649 9.99219Z" fill="#262626"/>
<path d="M11.0541 10.4617L13.1678 9.14499L11.9275 10.8759L11.0541 10.4617Z" fill="#666666"/>
<path d="M11.2054 8.90121L11.7182 9.46244L11.0541 10.4617L12.0384 9.39219L11.2054 8.90121Z" fill="#595959"/>
<path d="M12.7843 13.6041L16.42 11.8778L12.3152 14.4133L12.7843 13.6041Z" fill="#333333"/>
<path d="M12.7843 13.6041L11.324 12.7787L11.5996 13.5891L11.6004 13.5903L10.7839 14.1208L12.3125 14.4133L12.3144 14.4148L12.7843 13.6041Z" fill="#4D4D4D"/>
<path d="M8.41651 15.0064L10.1328 14.5411H6.70288L8.41651 15.0064Z" fill="#404040"/>
<path d="M8.4173 5.19911L8.41691 5.19873L7.96509 8.25439H8.4173H8.51902H8.86912L8.4173 5.19911Z" fill="#404040"/>
<path d="M11.0261 4.06513L8.41768 2.4371L5.81116 4.06513L8.41692 5.19872L11.0261 4.06513Z" fill="#BFBFBF"/>
<path d="M8.86951 8.25439H7.96471L7.27795 10.6978L8.41577 11.2678L8.41692 11.2671L8.4173 11.2667V11.2671L8.41845 11.2678L9.55627 10.6978L8.86951 8.25439Z" fill="#262626"/>
<path d="M8.41616 14.5411L9.19735 14.2989H7.63458L8.41616 14.5411Z" fill="#999999"/>
<path d="M8.41577 14.5412L10.1332 14.5419L9.1985 14.2982L8.41577 14.5412Z" fill="#666666"/>
<path d="M9.19696 14.2974L10.134 14.5415L11.6023 13.5891L9.19696 14.2974Z" fill="#999999"/>
<path d="M9.20001 14.2974L11.6023 13.5891L9.58197 13.1815L9.20001 14.2974Z" fill="#D9D9D9"/>
<path d="M11.6023 13.5891L11.3251 12.783L9.55316 10.6978L11.6023 13.5891Z" fill="#D9D9D9"/>
<path d="M9.58157 13.1814L11.6023 13.5891L9.55316 10.6978L9.58157 13.1814Z" fill="white"/>
<path d="M9.5532 10.6978L9.58199 13.1814L9.09753 12.5768L9.5532 10.6978Z" fill="#D9D9D9"/>
<path d="M9.09753 12.5768L9.29062 11.7811L8.4173 11.2678L9.09753 12.5768Z" fill="#666666"/>
<path d="M9.55319 10.6978L9.29062 11.7811L8.4173 11.2678L9.55319 10.6978Z" fill="#404040"/>
<path d="M8.41729 11.2697L7.73706 12.578H9.09752L8.41729 11.2697Z" fill="#808080"/>
<path d="M11.9275 10.8759L16.42 11.8778L12.7855 13.6056L11.9275 10.8759Z" fill="#1A1A1A"/>
<path d="M11.9275 10.8759L16.42 11.8778L13.1678 9.14383L11.9275 10.8759Z" fill="black"/>
<path d="M10.8292 8.36648L12.9379 8.10621L9.93286 6.44479L10.8292 8.36648Z" fill="#D9D9D9"/>
<path d="M8.86951 8.25439L10.8319 8.36648L9.93285 6.44479L8.86951 8.25439Z" fill="white"/>
<path d="M9.93284 6.4448L8.86912 8.25517L8.4173 5.19528L9.93284 6.4448Z" fill="#999999"/>
<path d="M13.5958 2.43326L12.3509 2.33499L12.5662 4.98835L13.5958 2.43326Z" fill="#262626"/>
<path d="M14.5121 3.57684L13.2242 5.43711L12.5662 4.98836L14.5121 3.57684Z" fill="#999999"/>
<path d="M13.5958 2.43328L14.3501 1.39642L14.5121 3.57685L13.5958 2.43328Z" fill="#262626"/>
<path d="M14.3501 1.39642L12.3509 2.335L13.5958 2.43328L14.3501 1.39642Z" fill="#404040"/>
<path d="M14.6415 5.12502L14.5121 3.57684L13.2242 5.43711L14.6415 5.12502Z" fill="#404040"/>
<path d="M14.6415 5.12503L15.3992 3.22791L14.5121 3.57685L14.6415 5.12503Z" fill="#595959"/>
<path d="M14.5121 3.57683L15.2464 1.50351L15.3992 3.22789L14.5121 3.57683Z" fill="#666666"/>
<path d="M14.3501 1.39643L12.2714 1.35651L12.3509 2.33501L14.3501 1.39643Z" fill="#808080"/>
<path d="M14.9424 2.36149L13.947 0.73999L15.2464 1.50352L14.9424 2.36149Z" fill="#808080"/>
<path d="M14.3501 1.39642L12.2714 1.3565L13.947 0.73999L14.3501 1.39642Z" fill="#BFBFBF"/>
<path d="M11.0261 4.06514L12.2714 1.35651L12.5662 4.98837L11.0261 4.06514Z" fill="#B3B3B3"/>
<path d="M11.0261 4.06514L12.2714 1.35651L10.8192 2.94307L11.0261 4.06514Z" fill="#666666"/>
<path d="M13.5958 2.43326L12.5662 4.98834L14.5121 3.57683L13.5958 2.43326Z" fill="#1A1A1A"/>
<path d="M8.4173 5.19526L9.93284 6.44478L11.0261 4.06512L8.4173 5.19526Z" fill="#B3B3B3"/>
<path d="M16.42 11.8778L14.6783 9.8068L14.6415 5.12503L16.42 11.8778Z" fill="#404040"/>
<path d="M11.0261 4.06512L12.5663 4.98835L9.93286 6.44478L11.0261 4.06512Z" fill="#999999"/>
<path d="M14.6415 5.12503L14.6783 9.8068L13.2242 5.43712L14.6415 5.12503Z" fill="#595959"/>
<path d="M13.2242 5.4371L14.6783 9.80678L12.9378 8.10735L13.2242 5.4371Z" fill="#666666"/>
<path d="M8.41766 2.4371L11.0273 4.06513L10.8192 2.94305L8.41766 2.4371Z" fill="#999999"/>
<path d="M12.9379 8.10622L13.2242 5.43713L12.5663 4.98837L9.93286 6.4448L12.9379 8.10622Z" fill="#808080"/>
<path d="M9.28638 9.74384L9.7048 9.82176L9.55317 10.6978L9.28638 9.74384Z" fill="#1A1A1A"/>
<path d="M11.9274 10.8759L12.7854 13.6056L11.3221 12.7772L10.4603 11.2256L11.9274 10.8759Z" fill="#262626"/>
<path d="M11.9275 10.8759L10.4603 11.2256L9.70483 9.82175L11.9275 10.8759Z" fill="#595959"/>
<path d="M9.2864 9.74384L10.8292 8.36649L8.86951 8.25439L9.2864 9.74384Z" fill="#A6A6A6"/>
<path d="M9.7048 9.82176L10.8319 8.36649L9.28638 9.74384L9.7048 9.82176Z" fill="#262626"/>
<path d="M9.55316 10.6978L9.70479 9.82175L11.3251 12.783L9.55316 10.6978Z" fill="#404040"/>
<path d="M8.41694 13.6997L7.63422 14.2989H9.19967L8.41694 13.6997Z" fill="black"/>
<path d="M9.09909 12.5768H8.42193H8.41732H7.74016L7.25763 13.1814H9.58162L9.09909 12.5768Z" fill="#404040"/>
<path d="M8.42151 13.6993L9.58351 13.1814L8.79924 13.1811L8.42151 13.6993Z" fill="#666666"/>
<path d="M8.42189 13.6989L8.7977 13.1815H8.03571L8.42189 13.6989Z" fill="#808080"/>
<path d="M9.19886 14.2974L8.41614 13.6993L9.58121 13.1815L9.19886 14.2974Z" fill="#262626"/>
<path d="M6.00846 8.36647L3.67218 9.14497L3.90251 8.1062L6.00846 8.36647Z" fill="#A6A6A6"/>
<path d="M2.16199 9.80678L3.90249 8.1062L3.67216 9.14497L2.16199 9.80678Z" fill="#808080"/>
<path d="M3.67218 9.145L5.78619 10.4617L7.13552 9.82177L6.35241 8.81064L3.67218 9.145Z" fill="black"/>
<path d="M6.48869 8.79374L3.67218 9.14499L6.00846 8.36649L6.48869 8.79374Z" fill="#4D4D4D"/>
<path d="M4.80193 9.39221L3.67218 9.14499L5.78619 10.4617L4.80193 9.39221Z" fill="#262626"/>
<path d="M5.63495 8.90121L6.43802 9.18375L6.77238 9.99219L6.5336 9.04248L5.63495 8.90121Z" fill="#808080"/>
<path d="M6.77544 9.99219L5.61652 10.2091L5.78619 10.4617L6.77544 9.99219Z" fill="#262626"/>
<path d="M5.78619 10.4617L3.67218 9.14499L4.91287 10.8759L5.78619 10.4617Z" fill="#666666"/>
<path d="M5.63495 8.90121L5.12209 9.46244L5.7862 10.4617L4.80194 9.39219L5.63495 8.90121Z" fill="#595959"/>
<path d="M4.05607 13.6041L0.419983 11.8778L4.52478 14.4133L4.05607 13.6041Z" fill="#333333"/>
<path d="M4.05609 13.6041L5.51636 12.7787L5.24074 13.5891L5.23997 13.5903L6.05648 14.1208L4.52749 14.4133L4.52596 14.4148L4.05609 13.6041Z" fill="#4D4D4D"/>
<path d="M8.42462 14.5412L6.70715 14.5419L7.64189 14.2982L8.42462 14.5412Z" fill="#666666"/>
<path d="M7.64341 14.2974L6.70637 14.5415L5.23804 13.5891L7.64341 14.2974Z" fill="#999999"/>
<path d="M7.64034 14.2974L5.23804 13.5891L7.25838 13.1815L7.64034 14.2974Z" fill="#D9D9D9"/>
<path d="M5.23804 13.5891L5.5152 12.783L7.28679 10.6978L5.23804 13.5891Z" fill="#D9D9D9"/>
<path d="M7.25877 13.1814L5.23804 13.5891L7.28679 10.6978L7.25877 13.1814Z" fill="white"/>
<path d="M7.28677 10.6978L7.25836 13.1814L7.74281 12.5768L7.28677 10.6978Z" fill="#D9D9D9"/>
<path d="M7.74283 12.5768L7.54974 11.7811L8.42306 11.2678L7.74283 12.5768Z" fill="#666666"/>
<path d="M7.2868 10.6978L7.54976 11.7811L8.42308 11.2678L7.2868 10.6978Z" fill="#404040"/>
<path d="M4.91288 10.8759L0.419983 11.8778L4.05492 13.6056L4.91288 10.8759Z" fill="#1A1A1A"/>
<path d="M4.91288 10.8759L0.419983 11.8778L3.67219 9.14499L4.91288 10.8759Z" fill="black"/>
<path d="M6.01116 8.36648L3.90253 8.10621L6.90752 6.44479L6.01116 8.36648Z" fill="#D9D9D9"/>
<path d="M7.97086 8.25439L6.00848 8.36648L6.90752 6.44479L7.97086 8.25439Z" fill="white"/>
<path d="M6.90753 6.4448L7.97126 8.25517L8.42308 5.19528L6.90753 6.4448Z" fill="#999999"/>
<path d="M3.24414 2.43326L4.48905 2.33499L4.2737 4.98835L3.24414 2.43326Z" fill="#262626"/>
<path d="M2.32825 3.57684L3.61577 5.43711L4.27374 4.98836L2.32825 3.57684Z" fill="#999999"/>
<path d="M3.24418 2.43328L2.49024 1.39642L2.32825 3.57685L3.24418 2.43328Z" fill="#262626"/>
<path d="M2.49023 1.39642L4.48908 2.335L3.24417 2.43328L2.49023 1.39642Z" fill="#404040"/>
<path d="M2.19885 5.12502L2.32822 3.57684L3.61574 5.43711L2.19885 5.12502Z" fill="#404040"/>
<path d="M2.19887 5.12503L1.4411 3.22791L2.32824 3.57685L2.19887 5.12503Z" fill="#595959"/>
<path d="M2.32824 3.57683L1.5935 1.50351L1.4411 3.22789L2.32824 3.57683Z" fill="#666666"/>
<path d="M2.49023 1.39643L4.56855 1.35651L4.48908 2.33501L2.49023 1.39643Z" fill="#808080"/>
<path d="M1.89792 2.36149L2.89293 0.73999L1.59351 1.50352L1.89792 2.36149Z" fill="#808080"/>
<path d="M2.49023 1.39642L4.56855 1.3565L2.89292 0.73999L2.49023 1.39642Z" fill="#BFBFBF"/>
<path d="M5.81386 4.06514L4.56856 1.35651L4.27374 4.98837L5.81386 4.06514Z" fill="#B3B3B3"/>
<path d="M5.81384 4.06514L4.56854 1.35651L6.02075 2.94307L5.81384 4.06514Z" fill="#666666"/>
<path d="M3.24418 2.43326L4.27374 4.98834L2.32825 3.57683L3.24418 2.43326Z" fill="#1A1A1A"/>
<path d="M8.42306 5.19526L6.90751 6.44478L5.81384 4.06512L8.42306 5.19526Z" fill="#B3B3B3"/>
<path d="M0.419983 11.8778L2.16202 9.8068L2.19887 5.12503L0.419983 11.8778Z" fill="#404040"/>
<path d="M5.81386 4.06512L4.27374 4.98835L6.90752 6.44478L5.81386 4.06512Z" fill="#999999"/>
<path d="M2.19884 5.12503L2.16199 9.8068L3.61573 5.43712L2.19884 5.12503Z" fill="#595959"/>
<path d="M3.61573 5.4371L2.16199 9.80678L3.90249 8.10735L3.61573 5.4371Z" fill="#666666"/>
<path d="M8.42266 2.4371L5.81268 4.06513L6.02075 2.94305L8.42266 2.4371Z" fill="#999999"/>
<path d="M3.90254 8.10622L3.61578 5.43713L4.27375 4.98837L6.90753 6.4448L3.90254 8.10622Z" fill="#808080"/>
<path d="M7.55398 9.74384L7.13556 9.82176L7.28681 10.6978L7.55398 9.74384Z" fill="#1A1A1A"/>
<path d="M4.9129 10.8759L4.05493 13.6056L5.51789 12.7772L6.38008 11.2256L4.9129 10.8759Z" fill="#262626"/>
<path d="M4.9129 10.8759L6.38008 11.2256L7.13555 9.82175L4.9129 10.8759Z" fill="#595959"/>
<path d="M7.55397 9.74384L6.01117 8.36649L7.97086 8.25439L7.55397 9.74384Z" fill="#A6A6A6"/>
<path d="M7.13555 9.82176L6.00848 8.36649L7.55397 9.74384L7.13555 9.82176Z" fill="#262626"/>
<path d="M7.28679 10.6978L7.13554 9.82175L5.5152 12.783L7.28679 10.6978Z" fill="#404040"/>
<path d="M8.42229 13.697L7.25684 13.1814L8.0411 13.1811L8.42229 13.697Z" fill="#666666"/>
<path d="M7.6415 14.2974L8.42384 13.6993L7.25916 13.1815L7.6415 14.2974Z" fill="#262626"/>
<path d="M16.42 11.8766L14.6772 9.80486L13.1666 9.14267L16.42 11.8766Z" fill="#666666"/>
<path d="M0.421875 11.8766L2.16468 9.80486L3.67523 9.14267L0.421875 11.8766Z" fill="#666666"/>
<path d="M10.6369 9.52961L10.7605 9.32846L11.0223 9.44439L10.7498 9.69353L10.6369 9.52961Z" fill="white"/>
<path d="M5.81805 9.44439L6.07948 9.32846L6.20308 9.52961L6.09061 9.69353L5.81805 9.44439Z" fill="white"/>
<path d="M10.7478 9.70622L10.8169 9.37033L11.043 9.43636L10.7478 9.70622Z" fill="#D9D9D9"/>
<path d="M10.623 9.52539L10.8169 9.3703L10.7559 9.30927L10.623 9.52539Z" fill="#8C8C8C"/>
<path d="M10.7559 9.3093L11.043 9.43636L10.8169 9.37033L10.7559 9.3093Z" fill="#666666"/>
<path d="M10.623 9.52542L10.7478 9.70622L10.8169 9.37033L10.623 9.52542Z" fill="white"/>
<path d="M6.09256 9.70622L6.02308 9.37033L5.79736 9.43636L6.09256 9.70622Z" fill="#D9D9D9"/>
<path d="M6.21693 9.52542L6.02307 9.37033L6.08411 9.3093L6.21693 9.52542Z" fill="#8C8C8C"/>
<path d="M6.08412 9.30927L5.79736 9.43633L6.02308 9.3703L6.08412 9.30927Z" fill="#666666"/>
<path d="M6.21693 9.52542L6.09255 9.70622L6.02307 9.37033L6.21693 9.52542Z" fill="white"/>
</svg>
