<svg width="23" height="21" viewBox="0 0 23 21" fill="none" xmlns="http://www.w3.org/2000/svg">
<path d="M9.08755 19.668L8.18126 19.0811L6.07522 19.4838L0.481262 16.0281L2.92143 6.76414L1.87738 4.15137L2.08428 1.81942L3.8256 0.796478L6.09422 1.63098L8.10262 3.82517L11.42 3.12632L14.7375 3.82517L16.7464 1.63098L19.015 0.796478L20.7563 1.81942L20.9627 4.15137L19.9192 6.76414L22.3593 16.0281L16.7654 19.4838L14.6593 19.0811L13.7573 19.6654L13.5678 19.7161L13.5683 19.7166L11.4153 20.2998L9.08755 19.668Z" fill="#808080"/>
<path d="M15.8021 18.4065L15.4052 17.3033L12.9851 14.4309L12.3585 17.0151L13.0236 17.8454L13.0241 17.8459L12.4995 19.3804L15.8021 18.4065Z" fill="#D9D9D9"/>
<path d="M7.05377 18.4065L7.43539 17.3033L9.87081 14.4309L10.4973 17.0151L9.83228 17.8454V17.8459H9.83175L10.3564 19.3804L7.05377 18.4065Z" fill="#D9D9D9"/>
<path d="M17.9429 12.309L16.237 14.689L14.2196 15.1698L15.4051 17.3033L17.4167 18.4424L22.3593 16.0281L17.9429 12.309Z" fill="black"/>
<path d="M4.89762 12.309L6.60358 14.689L8.62042 15.1698L7.43544 17.3033L5.42387 18.4424L0.481262 16.0281L4.89762 12.309Z" fill="black"/>
<path d="M19.5861 1.62833L16.8376 2.91887L17.1338 6.56724L19.8088 4.62641L19.5861 1.62833Z" fill="#1A1A1A"/>
<path d="M3.28344 1.62833L6.03238 2.91887L5.73627 6.56724L3.06122 4.62641L3.28344 1.62833Z" fill="#1A1A1A"/>
<path d="M8.11312 11.2264L9.6623 13.2274L7.43433 17.2991L9.87079 14.4319L10.2376 13.1203L8.11312 11.2264Z" fill="#262626"/>
<path d="M14.7321 11.2264L13.1824 13.2274L15.4104 17.2991L12.9744 14.4319L12.6071 13.1203L14.7321 11.2264Z" fill="#262626"/>
<path d="M19.5739 1.64417L20.391 2.9743L19.7951 4.6528L19.5739 1.64417Z" fill="#404040"/>
<path d="M3.26762 1.64417L2.45001 2.9743L3.04646 4.6528L3.26762 1.64417Z" fill="#404040"/>
<path d="M14.7364 11.2264L17.9482 12.2968L17.6321 10.8685L14.7364 11.2264Z" fill="#A6A6A6"/>
<path d="M20.0251 13.2068L17.632 10.8685L17.9481 12.2968L20.0251 13.2068Z" fill="#808080"/>
<path d="M17.9482 12.2969L15.042 14.1073L13.1866 13.2274L14.2634 11.8371L17.9482 12.2969Z" fill="black"/>
<path d="M14.076 11.8139L17.9482 12.2969L14.7364 11.2264L14.076 11.8139Z" fill="#4D4D4D"/>
<path d="M16.3953 12.6368L17.9482 12.2969L15.0419 14.1073L16.3953 12.6368Z" fill="#262626"/>
<path d="M15.2499 11.9617L14.1457 12.3502L13.6854 13.4618L14.0143 12.1559L15.2499 11.9617Z" fill="#808080"/>
<path d="M13.6817 13.4618L15.2752 13.76L15.0419 14.1073L13.6817 13.4618Z" fill="#262626"/>
<path d="M15.0419 14.1073L17.9482 12.2969L16.2427 14.6769L15.0419 14.1073Z" fill="#666666"/>
<path d="M15.2499 11.9617L15.9551 12.7334L15.0419 14.1073L16.3953 12.6368L15.2499 11.9617Z" fill="#595959"/>
<path d="M17.4209 18.4282L22.42 16.0545L16.7759 19.5408L17.4209 18.4282Z" fill="#333333"/>
<path d="M17.4209 18.4281L15.413 17.2933L15.792 18.4075L15.793 18.4091L14.6703 19.1386L16.7722 19.5408L16.7748 19.5429L17.4209 18.4281Z" fill="#4D4D4D"/>
<path d="M11.4152 20.3563L13.7751 19.7166H9.05896L11.4152 20.3563Z" fill="#404040"/>
<path d="M11.4163 6.87129L11.4158 6.87076L10.7945 11.0723H11.4163H11.5562H12.0375L11.4163 6.87129Z" fill="#404040"/>
<path d="M15.0034 5.31205L11.4168 3.07352L7.83282 5.31205L11.4157 6.87073L15.0034 5.31205Z" fill="#BFBFBF"/>
<path d="M12.0381 11.0723H10.794L9.84967 14.4319L11.4142 15.2158L11.4157 15.2147L11.4163 15.2142V15.2147L11.4179 15.2158L12.9823 14.4319L12.0381 11.0723Z" fill="#262626"/>
<path d="M11.4148 19.7166L12.4889 19.3835H10.3401L11.4148 19.7166Z" fill="#999999"/>
<path d="M11.4142 19.7166L13.7757 19.7176L12.4904 19.3825L11.4142 19.7166Z" fill="#666666"/>
<path d="M12.4883 19.3814L13.7768 19.7171L15.7957 18.4075L12.4883 19.3814Z" fill="#999999"/>
<path d="M12.4926 19.3814L15.7957 18.4076L13.0177 17.847L12.4926 19.3814Z" fill="#D9D9D9"/>
<path d="M15.7957 18.4075L15.4146 17.2991L12.9781 14.4319L15.7957 18.4075Z" fill="#D9D9D9"/>
<path d="M13.0171 17.847L15.7957 18.4075L12.9781 14.4319L13.0171 17.847Z" fill="white"/>
<path d="M12.9782 14.4319L13.0177 17.847L12.3516 17.0156L12.9782 14.4319Z" fill="#D9D9D9"/>
<path d="M12.3516 17.0157L12.6171 15.9215L11.4163 15.2158L12.3516 17.0157Z" fill="#666666"/>
<path d="M12.9781 14.4319L12.6171 15.9215L11.4163 15.2157L12.9781 14.4319Z" fill="#404040"/>
<path d="M11.4163 15.2184L10.481 17.0173H12.3516L11.4163 15.2184Z" fill="#808080"/>
<path d="M16.2428 14.6768L22.42 16.0545L17.4225 18.4303L16.2428 14.6768Z" fill="#1A1A1A"/>
<path d="M16.2428 14.6768L22.42 16.0545L17.9482 12.2953L16.2428 14.6768Z" fill="black"/>
<path d="M14.7327 11.2264L17.632 10.8686L13.5002 8.58411L14.7327 11.2264Z" fill="#D9D9D9"/>
<path d="M12.0381 11.0723L14.7364 11.2264L13.5002 8.58411L12.0381 11.0723Z" fill="white"/>
<path d="M13.5001 8.58412L12.0375 11.0734L11.4163 6.86603L13.5001 8.58412Z" fill="#999999"/>
<path d="M18.5367 3.06823L16.825 2.93311L17.1211 6.58147L18.5367 3.06823Z" fill="#262626"/>
<path d="M19.7967 4.64066L18.0258 7.19853L17.1211 6.58149L19.7967 4.64066Z" fill="#999999"/>
<path d="M18.5367 3.06825L19.5739 1.64258L19.7967 4.64066L18.5367 3.06825Z" fill="#262626"/>
<path d="M19.5739 1.64258L16.825 2.93313L18.5367 3.06825L19.5739 1.64258Z" fill="#404040"/>
<path d="M19.9745 6.7694L19.7966 4.64066L18.0258 7.19853L19.9745 6.7694Z" fill="#404040"/>
<path d="M19.9745 6.76943L21.0164 4.16089L19.7966 4.64069L19.9745 6.76943Z" fill="#595959"/>
<path d="M19.7966 4.64064L20.8064 1.78983L21.0164 4.16084L19.7966 4.64064Z" fill="#666666"/>
<path d="M19.5739 1.6426L16.7157 1.58771L16.825 2.93315L19.5739 1.6426Z" fill="#808080"/>
<path d="M20.3883 2.96955L19.0197 0.73999L20.8064 1.78985L20.3883 2.96955Z" fill="#808080"/>
<path d="M19.5739 1.64258L16.7157 1.58769L19.0197 0.73999L19.5739 1.64258Z" fill="#BFBFBF"/>
<path d="M15.0034 5.31208L16.7157 1.58771L17.1211 6.58152L15.0034 5.31208Z" fill="#B3B3B3"/>
<path d="M15.0034 5.31208L16.7157 1.58771L14.7189 3.76923L15.0034 5.31208Z" fill="#666666"/>
<path d="M18.5367 3.06824L17.1211 6.58148L19.7967 4.64065L18.5367 3.06824Z" fill="#1A1A1A"/>
<path d="M11.4163 6.86598L13.5001 8.58407L15.0034 5.31204L11.4163 6.86598Z" fill="#B3B3B3"/>
<path d="M22.42 16.0545L20.0252 13.2068L19.9745 6.76941L22.42 16.0545Z" fill="#404040"/>
<path d="M15.0034 5.31204L17.1211 6.58148L13.5002 8.58407L15.0034 5.31204Z" fill="#999999"/>
<path d="M19.9745 6.76941L20.0252 13.2068L18.0258 7.19854L19.9745 6.76941Z" fill="#595959"/>
<path d="M18.0257 7.19852L20.0251 13.2068L17.632 10.8701L18.0257 7.19852Z" fill="#666666"/>
<path d="M11.4166 3.07352L15.0048 5.31205L14.7187 3.7692L11.4166 3.07352Z" fill="#999999"/>
<path d="M17.632 10.8686L18.0258 7.19855L17.1211 6.58151L13.5002 8.5841L17.632 10.8686Z" fill="#808080"/>
<path d="M12.6113 13.1203L13.1866 13.2274L12.9781 14.4319L12.6113 13.1203Z" fill="#1A1A1A"/>
<path d="M16.2427 14.6768L17.4224 18.4303L15.4103 17.2912L14.2253 15.1577L16.2427 14.6768Z" fill="#262626"/>
<path d="M16.2428 14.6768L14.2254 15.1577L13.1866 13.2274L16.2428 14.6768Z" fill="#595959"/>
<path d="M12.6113 13.1203L14.7327 11.2264L12.0381 11.0723L12.6113 13.1203Z" fill="#A6A6A6"/>
<path d="M13.1866 13.2274L14.7363 11.2264L12.6113 13.1203L13.1866 13.2274Z" fill="#262626"/>
<path d="M12.9781 14.4319L13.1866 13.2274L15.4146 17.2991L12.9781 14.4319Z" fill="#404040"/>
<path d="M11.4158 18.5596L10.3395 19.3835H12.492L11.4158 18.5596Z" fill="black"/>
<path d="M12.3538 17.0157H11.4227H11.4164H10.4853L9.82178 17.847H13.0173L12.3538 17.0157Z" fill="#404040"/>
<path d="M11.4221 18.559L13.0198 17.847L11.9414 17.8465L11.4221 18.559Z" fill="#666666"/>
<path d="M11.4226 18.5585L11.9393 17.847H10.8916L11.4226 18.5585Z" fill="#808080"/>
<path d="M12.4909 19.3814L11.4147 18.5591L13.0166 17.847L12.4909 19.3814Z" fill="#262626"/>
<path d="M8.1041 11.2264L4.89172 12.2968L5.20842 10.8685L8.1041 11.2264Z" fill="#A6A6A6"/>
<path d="M2.81525 13.2068L5.20843 10.8685L4.89173 12.2968L2.81525 13.2068Z" fill="#808080"/>
<path d="M4.89172 12.2969L7.79849 14.1073L9.65382 13.2274L8.57704 11.8371L4.89172 12.2969Z" fill="black"/>
<path d="M8.76442 11.8139L4.89172 12.2969L8.1041 11.2264L8.76442 11.8139Z" fill="#4D4D4D"/>
<path d="M6.44513 12.6368L4.89172 12.2969L7.79849 14.1073L6.44513 12.6368Z" fill="#262626"/>
<path d="M7.59058 11.9617L8.6948 12.3502L9.15454 13.4618L8.82623 12.1559L7.59058 11.9617Z" fill="#808080"/>
<path d="M9.15871 13.4618L7.56519 13.76L7.79849 14.1073L9.15871 13.4618Z" fill="#262626"/>
<path d="M7.79849 14.1073L4.89172 12.2969L6.59767 14.6769L7.79849 14.1073Z" fill="#666666"/>
<path d="M7.59058 11.9617L6.8854 12.7334L7.79855 14.1073L6.44519 12.6368L7.59058 11.9617Z" fill="#595959"/>
<path d="M5.4196 18.4282L0.419983 16.0545L6.06408 19.5408L5.4196 18.4282Z" fill="#333333"/>
<path d="M5.41962 18.4281L7.42749 17.2933L7.0485 18.4075L7.04745 18.4091L8.17014 19.1386L6.06779 19.5408L6.06568 19.5429L5.41962 18.4281Z" fill="#4D4D4D"/>
<path d="M11.4263 19.7166L9.06482 19.7176L10.3501 19.3825L11.4263 19.7166Z" fill="#666666"/>
<path d="M10.3522 19.3814L9.06375 19.7171L7.0448 18.4075L10.3522 19.3814Z" fill="#999999"/>
<path d="M10.348 19.3814L7.0448 18.4076L9.82278 17.847L10.348 19.3814Z" fill="#D9D9D9"/>
<path d="M7.0448 18.4075L7.42589 17.2991L9.86184 14.4319L7.0448 18.4075Z" fill="#D9D9D9"/>
<path d="M9.8233 17.847L7.0448 18.4075L9.86184 14.4319L9.8233 17.847Z" fill="white"/>
<path d="M9.86181 14.4319L9.82275 17.847L10.4889 17.0156L9.86181 14.4319Z" fill="#D9D9D9"/>
<path d="M10.4889 17.0157L10.2234 15.9215L11.4242 15.2158L10.4889 17.0157Z" fill="#666666"/>
<path d="M9.86188 14.4319L10.2234 15.9215L11.4243 15.2157L9.86188 14.4319Z" fill="#404040"/>
<path d="M6.59772 14.6768L0.419983 16.0545L5.41802 18.4303L6.59772 14.6768Z" fill="#1A1A1A"/>
<path d="M6.59772 14.6769L0.419983 16.0545L4.89177 12.2969L6.59772 14.6769Z" fill="black"/>
<path d="M8.10787 11.2264L5.2085 10.8686L9.34036 8.58411L8.10787 11.2264Z" fill="#D9D9D9"/>
<path d="M10.8025 11.0723L8.10419 11.2264L9.34037 8.58411L10.8025 11.0723Z" fill="white"/>
<path d="M9.34033 8.58412L10.803 11.0734L11.4242 6.86603L9.34033 8.58412Z" fill="#999999"/>
<path d="M4.30322 3.06823L6.01498 2.93311L5.71887 6.58147L4.30322 3.06823Z" fill="#262626"/>
<path d="M3.04382 4.64066L4.81417 7.19853L5.71887 6.58149L3.04382 4.64066Z" fill="#999999"/>
<path d="M4.30323 3.06825L3.26657 1.64258L3.04382 4.64066L4.30323 3.06825Z" fill="#262626"/>
<path d="M3.2666 1.64258L6.01502 2.93313L4.30326 3.06825L3.2666 1.64258Z" fill="#404040"/>
<path d="M2.86591 6.7694L3.04378 4.64066L4.81413 7.19853L2.86591 6.7694Z" fill="#404040"/>
<path d="M2.86597 6.76943L1.82404 4.16089L3.04385 4.64069L2.86597 6.76943Z" fill="#595959"/>
<path d="M3.04385 4.64064L2.03358 1.78983L1.82404 4.16084L3.04385 4.64064Z" fill="#666666"/>
<path d="M3.2666 1.6426L6.12428 1.58771L6.01502 2.93315L3.2666 1.6426Z" fill="#808080"/>
<path d="M2.45214 2.96955L3.82028 0.73999L2.03357 1.78985L2.45214 2.96955Z" fill="#808080"/>
<path d="M3.2666 1.64258L6.12428 1.58769L3.8203 0.73999L3.2666 1.64258Z" fill="#BFBFBF"/>
<path d="M7.83653 5.31208L6.12425 1.58771L5.71887 6.58152L7.83653 5.31208Z" fill="#B3B3B3"/>
<path d="M7.83655 5.31208L6.12427 1.58771L8.12105 3.76923L7.83655 5.31208Z" fill="#666666"/>
<path d="M4.30323 3.06824L5.71887 6.58148L3.04382 4.64065L4.30323 3.06824Z" fill="#1A1A1A"/>
<path d="M11.4242 6.86598L9.34034 8.58407L7.83655 5.31204L11.4242 6.86598Z" fill="#B3B3B3"/>
<path d="M0.419983 16.0545L2.81528 13.2068L2.86595 6.76941L0.419983 16.0545Z" fill="#404040"/>
<path d="M7.83653 5.31204L5.71887 6.58148L9.34032 8.58407L7.83653 5.31204Z" fill="#999999"/>
<path d="M2.86592 6.76941L2.81525 13.2068L4.81414 7.19854L2.86592 6.76941Z" fill="#595959"/>
<path d="M4.81414 7.19852L2.81525 13.2068L5.20843 10.8701L4.81414 7.19852Z" fill="#666666"/>
<path d="M11.4237 3.07352L7.83496 5.31205L8.12105 3.7692L11.4237 3.07352Z" fill="#999999"/>
<path d="M5.2085 10.8686L4.81421 7.19855L5.71891 6.58151L9.34036 8.5841L5.2085 10.8686Z" fill="#808080"/>
<path d="M10.2293 13.1203L9.65393 13.2274L9.8619 14.4319L10.2293 13.1203Z" fill="#1A1A1A"/>
<path d="M6.59773 14.6768L5.41803 18.4303L7.42959 17.2912L8.6151 15.1577L6.59773 14.6768Z" fill="#262626"/>
<path d="M6.59778 14.6768L8.61515 15.1577L9.65392 13.2274L6.59778 14.6768Z" fill="#595959"/>
<path d="M10.2292 13.1203L8.10785 11.2264L10.8024 11.0723L10.2292 13.1203Z" fill="#A6A6A6"/>
<path d="M9.6539 13.2274L8.10419 11.2264L10.2292 13.1203L9.6539 13.2274Z" fill="#262626"/>
<path d="M9.86184 14.4319L9.65388 13.2274L7.4259 17.2991L9.86184 14.4319Z" fill="#404040"/>
<path d="M11.4232 18.5559L9.82068 17.847L10.899 17.8465L11.4232 18.5559Z" fill="#666666"/>
<path d="M10.3496 19.3814L11.4253 18.5591L9.82385 17.847L10.3496 19.3814Z" fill="#262626"/>
<path d="M22.42 16.0529L20.0236 13.2042L17.9466 12.2937L22.42 16.0529Z" fill="#666666"/>
<path d="M0.422607 16.0529L2.81896 13.2042L4.89598 12.2937L0.422607 16.0529Z" fill="#666666"/>
<path d="M14.4683 12.8257L14.6382 12.5491L14.9982 12.7085L14.6234 13.0511L14.4683 12.8257Z" fill="white"/>
<path d="M7.84235 12.7085L8.2018 12.5491L8.37176 12.8257L8.21711 13.0511L7.84235 12.7085Z" fill="white"/>
<path d="M14.6207 13.0686L14.7157 12.6067L15.0266 12.6975L14.6207 13.0686Z" fill="#D9D9D9"/>
<path d="M14.4492 12.8199L14.7158 12.6067L14.6318 12.5227L14.4492 12.8199Z" fill="#8C8C8C"/>
<path d="M14.6318 12.5228L15.0267 12.6975L14.7158 12.6067L14.6318 12.5228Z" fill="#666666"/>
<path d="M14.4492 12.82L14.6208 13.0686L14.7158 12.6067L14.4492 12.82Z" fill="white"/>
<path d="M8.21981 13.0686L8.12427 12.6067L7.8139 12.6975L8.21981 13.0686Z" fill="#D9D9D9"/>
<path d="M8.39076 12.82L8.12421 12.6067L8.20813 12.5228L8.39076 12.82Z" fill="#8C8C8C"/>
<path d="M8.20819 12.5227L7.8139 12.6974L8.12427 12.6067L8.20819 12.5227Z" fill="#666666"/>
<path d="M8.39076 12.82L8.21974 13.0686L8.12421 12.6067L8.39076 12.82Z" fill="white"/>
</svg>
